<?xml version="1.0" encoding="utf-8"?>
<!-- Generator: Adobe Illustrator 22.0.1, SVG Export Plug-In . SVG Version: 6.00 Build 0)  -->
<svg version="1.1" id="Layer_1" xmlns="http://www.w3.org/2000/svg" xmlns:xlink="http://www.w3.org/1999/xlink" x="0px" y="0px"
	 viewBox="0 0 2814.7 459.7" style="enable-background:new 0 0 2814.7 459.7;" xml:space="preserve">
<style type="text/css">
	.st0{fill:none;stroke:#A8B5CC;stroke-width:4;stroke-miterlimit:10;}
</style>
<g>
	<g>
		<g>
			<polygon class="st0" points="1090.7,59.4 1090.7,234.5 1090.7,259.5 1090.7,290.8 1147,290.8 1147,259.5 1147,234.5 1147,59.4 
							"/>
			<polygon class="st0" points="978.2,290.8 978.2,347.1 1034.4,347.1 1090.7,347.1 1090.7,290.8 1034.4,290.8 			"/>
			<rect x="921.9" y="347.1" class="st0" width="56.3" height="112.6"/>
			<polygon class="st0" points="865.6,3.1 809.3,3.1 809.3,59.4 809.3,459.7 865.6,459.7 865.6,59.4 1090.7,59.4 1090.7,3.1 			"/>
		</g>
	</g>
	<path class="st0" d="M168.9,0h56.3v168.9h-56.3V0z"/>
	<path class="st0" d="M112.6,287.7h56.3v168.9h-56.3C112.6,456.6,112.6,287.7,112.6,287.7z"/>
	<g>
		<g>
			<rect y="56.3" class="st0" width="56.3" height="400.3"/>
			<rect x="56.3" class="st0" width="56.3" height="56.3"/>
			<polygon class="st0" points="168.9,112.6 168.9,168.9 225.1,168.9 225.1,0 168.9,0 168.9,56.3 112.6,56.3 112.6,112.6 			"/>
			<rect x="281.4" class="st0" width="56.3" height="400.3"/>
			<rect x="225.1" y="400.3" class="st0" width="56.3" height="56.3"/>
			<polygon class="st0" points="168.9,344 168.9,287.7 112.6,287.7 112.6,456.5 168.9,456.5 168.9,400.3 225.1,400.3 225.1,344 			
				"/>
		</g>
	</g>
	<g>
		<g>
			<polygon class="st0" points="2195.3,347.1 2195.3,293.9 2195.3,237.7 2195.3,181.4 2195.3,125.1 2195.3,68.8 2139,68.8 
				2139,125.1 2139,181.4 2139,237.7 2139,293.9 2139,347.1 2139,350.2 2139,403.4 2195.3,403.4 2195.3,350.2 			"/>
			<polygon class="st0" points="2251.6,403.4 2195.3,403.4 2195.3,459.7 2251.6,459.7 2307.9,459.7 2364.1,459.7 2364.1,403.4 
				2307.9,403.4 			"/>
			<polygon class="st0" points="2364.1,68.8 2364.1,125.1 2364.1,178.2 2364.1,181.4 2364.1,234.5 2364.1,290.8 2364.1,347.1 
				2364.1,403.4 2420.4,403.4 2420.4,347.1 2420.4,290.8 2420.4,234.5 2420.4,181.4 2420.4,178.2 2420.4,125.1 2420.4,68.8 			"/>
			<polygon class="st0" points="2307.9,68.8 2364.1,68.8 2364.1,12.5 2307.9,12.5 2251.6,12.5 2195.3,12.5 2195.3,68.8 2251.6,68.8 
							"/>
		</g>
	</g>
	<g>
		<g>
			<path class="st0" d="M1270.7,148.2v215.9h55.4v25.1H1184v-25.1h57.7V173.5H1184v-25.3H1270.7z"/>
			<path class="st0" d="M1481,381c-0.7-3.3-1.2-6.7-1.5-10.3c-2.9,2.9-6.2,5.7-9.8,8.3c-3.6,2.6-7.6,4.9-11.8,6.9
				c-4.4,2-9,3.6-14,4.7c-4.9,1.1-10.1,1.7-15.7,1.7c-9,0-17.1-1.3-24.4-3.9s-13.4-6.2-18.4-10.7c-5.1-4.4-9.1-9.6-11.8-15.8
				c-2.8-6.1-4.2-12.7-4.2-19.8c0-9.3,1.9-17.5,5.6-24.5s9-12.9,15.8-17.6c6.8-4.6,15-8.1,24.6-10.4s20.3-3.5,32.1-3.5h31.7V273
				c0-5.1-0.9-9.7-2.8-13.8s-4.6-7.6-8-10.5c-3.5-2.8-7.7-5-12.6-6.6c-5-1.6-10.5-2.4-16.7-2.4c-5.8,0-10.9,0.7-15.5,2.2
				c-4.5,1.5-8.4,3.4-11.5,5.8c-3.1,2.4-5.6,5.3-7.3,8.6c-1.7,3.3-2.6,6.7-2.6,10.3H1373c0.1-6.2,1.7-12.2,4.8-18.2
				c3.1-6,7.6-11.3,13.4-16.2c5.8-4.7,12.8-8.5,21.1-11.5c8.3-2.9,17.8-4.4,28.3-4.4c9.6,0,18.6,1.2,26.8,3.5
				c8.3,2.4,15.4,5.9,21.5,10.6c6,4.8,10.7,10.8,14.1,17.9c3.5,7.1,5.2,15.4,5.2,24.9v78.9c0,5.6,0.5,11.6,1.6,18
				c1,6.3,2.5,11.8,4.4,16.6v2.5h-30.3C1482.6,387,1481.7,384.3,1481,381z M1448.3,364.9c4.9-1.5,9.4-3.4,13.5-5.8
				c4-2.4,7.4-5.2,10.4-8.2c2.9-3.1,5.2-6.3,6.9-9.6v-34.4h-27c-10,0-18.8,0.9-26.3,2.6s-13.4,4.4-17.8,7.9
				c-3.1,2.5-5.5,5.5-7.1,8.9c-1.6,3.5-2.4,7.4-2.4,11.8c0,4.2,0.7,8.1,2.1,11.6c1.4,3.6,3.5,6.6,6.4,9.1c2.8,2.6,6.4,4.7,10.7,6.1
				c4.3,1.5,9.3,2.2,14.9,2.2C1438.1,367.1,1443.3,366.4,1448.3,364.9z"/>
			<path class="st0" d="M1569.1,456.9c-3.7-0.6-6.4-1.2-8.3-1.6l4.7-23.7c2.6,0.2,5.2,0.4,7.8,0.5c2.6,0.2,4.6,0.2,6,0.2
				c4,0,7.6-1.1,10.9-3.3c3.3-2.2,6.2-4.8,8.9-7.8c2.5-3,4.7-6.2,6.5-9.4c1.8-3.2,3.3-5.9,4.3-8l11.6-22.6l-73.1-161.8h32.5
				l46.6,109.5l7.5,20.6l8-19.9l43.8-110.1h32.5l-86.1,196c-2,4.4-4.5,9-7.6,14c-3.1,4.9-6.8,9.5-11.2,13.6
				c-4.4,4.2-9.5,7.7-15.4,10.5s-12.6,4.2-20.2,4.2C1575.9,457.8,1572.7,457.5,1569.1,456.9z"/>
			<path class="st0" d="M1799.9,386.3c-10-4.1-18.5-9.8-25.7-17.1c-7.1-7.3-12.7-16-16.6-26c-4-10-6-21-6-32.8v-6.6
				c0-13.7,2.2-26,6.6-36.8s10.2-20,17.6-27.5c7.2-7.4,15.5-13.1,24.7-17.1c9.3-4,18.7-6,28.5-6c12.2,0,22.9,2.1,32.1,6.4
				c9.2,4.2,16.8,10.1,22.8,17.5c6.1,7.5,10.6,16.4,13.6,26.5s4.5,21.1,4.5,32.9v13h-121.3v1.1c0.7,8.3,2.4,15.5,4.9,21.8
				c2.6,6.3,6.1,11.8,10.6,16.6c4.6,5.1,10.1,9.2,16.6,12.1s13.6,4.4,21.5,4.4c10.4,0,19.6-2.1,27.6-6.3c8.1-4.2,14.7-9.7,20.1-16.6
				l17.7,13.8c-5.6,8.6-14.1,16.2-25.3,22.8c-11.2,6.6-25.1,10-41.7,10C1820.9,392.4,1809.9,390.3,1799.9,386.3z M1812.4,243.4
				c-5.2,2.1-9.9,5.3-14.1,9.3c-4.2,4.2-7.7,9.3-10.6,15.3s-4.9,12.9-6,20.8h91.3v-1.4c0-5.2-1-10.9-3-16.9s-4.8-11.2-8.3-15.6
				c-3.6-4.4-8-7.9-13.4-10.7c-5.4-2.7-11.8-4.1-19.2-4.1C1823.2,240.2,1817.6,241.3,1812.4,243.4z"/>
			<path class="st0" d="M2078.6,217.4c5.8,0.7,10.2,1.7,13.1,3l-3.9,28.4c-5.6-1.3-11-2.2-16.1-2.7c-5.1-0.6-10.4-0.9-15.9-0.9
				c-7.1,0-13.5,0.9-19.3,2.6c-5.8,1.7-10.8,4.3-15.1,7.6c-3.9,2.9-7.2,6.5-10.1,10.7c-2.9,4.2-5.3,9-7.1,14.2v108.9H1975V219.5
				h27.6l1.3,22.7l0.2,4.2c6.9-9.3,15.2-16.7,24.9-22c9.7-5.4,20.7-8.1,33-8.1C2067.2,216.3,2072.8,216.7,2078.6,217.4z"/>
		</g>
	</g>
	<g>
		<g>
			<path class="st0" d="M488.6,190.6v203.6h-28.2V190.6h-70.6v-24.8h169.4v24.8H488.6z"/>
			<path class="st0" d="M630,293.4v100.9h-29.3V165.8H741v24.8H630v78.1h95.1v24.6L630,293.4L630,293.4z"/>
		</g>
	</g>
	<g>
		<g>
			<path class="st0" d="M2477.6,224.5h26l2,25.1c2.5-3.6,5.3-6.8,8.2-9.8c3-3,6.1-5.6,9.5-7.8c5-3.3,10.5-5.9,16.4-7.8
				c5.9-1.8,12.2-2.8,18.7-2.9c8.9,0,17,1.3,24.2,3.8c7.3,2.5,13.5,6.4,18.6,11.8c5.1,5.3,9.1,12.1,11.8,20.3
				c2.8,8.2,4.2,18,4.2,29.3v107.8h-29V287.1c0-7.5-0.8-13.9-2.5-19.1s-4.1-9.5-7.4-12.7c-3.3-3.2-7.4-5.6-12.2-7.1
				s-10.2-2.2-16.4-2.2c-5.3,0-10.3,0.8-14.9,2.3c-4.6,1.5-8.8,3.6-12.7,6.2c-3.1,2.3-6,5-8.7,8s-5,6.4-7,10v121.8h-29V224.5H2477.6
				z"/>
			<path class="st0" d="M2712.6,391.3c-10-4.1-18.5-9.8-25.7-17.1c-7.1-7.3-12.7-16-16.6-26c-4-10-6-21-6-32.8v-6.6
				c0-13.7,2.2-26,6.6-36.8c4.4-10.8,10.2-20,17.6-27.5c7.2-7.4,15.5-13.1,24.7-17.1c9.3-4,18.7-6,28.5-6c12.2,0,22.9,2.1,32.1,6.4
				c9.2,4.2,16.8,10.1,22.8,17.5c6.1,7.5,10.6,16.4,13.6,26.5s4.5,21.1,4.5,32.9v13h-121.3v1.1c0.7,8.3,2.4,15.5,4.9,21.8
				c2.6,6.3,6.1,11.8,10.6,16.6c4.6,5.1,10.1,9.2,16.6,12.1s13.6,4.4,21.5,4.4c10.4,0,19.6-2.1,27.6-6.3c8.1-4.2,14.7-9.7,20.1-16.6
				l17.7,13.8c-5.6,8.6-14.1,16.2-25.3,22.8c-11.2,6.6-25.1,10-41.7,10C2733.5,397.4,2722.6,395.4,2712.6,391.3z M2725.1,248.4
				c-5.2,2.1-9.9,5.3-14.1,9.3c-4.2,4.2-7.7,9.3-10.6,15.3c-2.9,6-4.9,12.9-6,20.8h91.3v-1.4c0-5.2-1-10.9-3-16.9
				s-4.8-11.2-8.3-15.6c-3.6-4.4-8-7.9-13.4-10.7c-5.4-2.7-11.8-4.1-19.2-4.1C2735.8,245.2,2730.3,246.3,2725.1,248.4z"/>
		</g>
	</g>
</g>
</svg>
