<?xml version="1.0" encoding="utf-8"?>
<!-- Generator: Adobe Illustrator 22.0.1, SVG Export Plug-In . SVG Version: 6.00 Build 0)  -->
<svg version="1.1" id="Layer_1" xmlns="http://www.w3.org/2000/svg" xmlns:xlink="http://www.w3.org/1999/xlink" x="0px" y="0px"
	 viewBox="0 0 2743.9 480" style="enable-background:new 0 0 2743.9 480;" xml:space="preserve">
<style type="text/css">
	.st0{fill-rule:evenodd;clip-rule:evenodd;fill:#2D2D2D;}
</style>
<g>
	<polygon class="st0" points="1150.7,59.4 1150.7,234.5 1150.7,259.5 1150.7,290.8 1207,290.8 1207,259.5 1207,234.5 1207,59.4 	"/>
	<polygon class="st0" points="1038.2,290.8 1038.2,347.1 1094.4,347.1 1150.7,347.1 1150.7,290.8 1094.4,290.8 	"/>
	<rect x="981.9" y="347.1" class="st0" width="56.3" height="112.6"/>
	<polygon class="st0" points="925.6,3.1 869.3,3.1 869.3,59.4 869.3,459.7 925.6,459.7 925.6,59.4 1150.7,59.4 1150.7,3.1 	"/>
</g>
<path class="st0" d="M168.9,0h56.3v168.9h-56.3V0z"/>
<path class="st0" d="M112.6,287.7h56.3v168.9h-56.3V287.7z"/>
<g>
	<rect y="56.3" class="st0" width="56.3" height="400.3"/>
	<rect x="56.3" class="st0" width="56.3" height="56.3"/>
	<polygon class="st0" points="168.9,112.6 168.9,168.9 225.1,168.9 225.1,0 168.9,0 168.9,56.3 112.6,56.3 112.6,112.6 	"/>
	<rect x="281.4" class="st0" width="56.3" height="400.3"/>
	<rect x="225.1" y="400.3" class="st0" width="56.3" height="56.3"/>
	<polygon class="st0" points="168.9,344 168.9,287.7 112.6,287.7 112.6,456.5 168.9,456.5 168.9,400.3 225.1,400.3 225.1,344 	"/>
</g>
<g>
	<polygon class="st0" points="2137.3,347.1 2137.3,293.9 2137.3,237.7 2137.3,181.4 2137.3,125.1 2137.3,68.8 2081,68.8 2081,125.1 
		2081,181.4 2081,237.7 2081,293.9 2081,347.1 2081,350.2 2081,403.4 2137.3,403.4 2137.3,350.2 	"/>
	<polygon class="st0" points="2193.6,403.4 2137.3,403.4 2137.3,459.7 2193.6,459.7 2249.9,459.7 2306.1,459.7 2306.1,403.4 
		2249.9,403.4 	"/>
	<polygon class="st0" points="2306.1,68.8 2306.1,125.1 2306.1,178.2 2306.1,181.4 2306.1,234.5 2306.1,290.8 2306.1,347.1 
		2306.1,403.4 2362.4,403.4 2362.4,347.1 2362.4,290.8 2362.4,234.5 2362.4,181.4 2362.4,178.2 2362.4,125.1 2362.4,68.8 	"/>
	<polygon class="st0" points="2249.9,68.8 2306.1,68.8 2306.1,12.5 2249.9,12.5 2193.6,12.5 2137.3,12.5 2137.3,68.8 2193.6,68.8 	
		"/>
</g>
<path class="st0" d="M1244.2,405.8c0.7-4.1,18.1-17.8,21.6-22.3c0-40.9,0-81.8,0-122.6c0-10.4,0-20.8,0-31.2c0-2.7,0.9-9.4-0.5-11
	c-7.3-4.8-14.6-9.6-21.8-14.4c0-0.2,0-0.5,0-0.7c14.8-8.1,29.6-16.2,44.4-24.2c2.3-1.2,13.1-8.1,14.6-7.2c2.3,1.6,1.2,9.5,1.2,13.2
	c0,12.9,0,25.8,0,38.6c0,53.1,0,106.2,0,159.4c6.2,5.6,12.3,11.2,18.5,16.8c1.8,1.6,4.9,3.2,5.8,5.8
	C1300,405.8,1272.1,405.8,1244.2,405.8z"/>
<path class="st0" d="M560.9,180.5c1.8,26.2,3.5,52.3,5.3,78.5c-3.2-1.1-9-11.1-11.3-14.2c-10.6-13.7-21.1-27.4-31.7-41
	c-26.3,0-52.6,0-79,0c0,27.4,0,54.9,0,82.3c10.8,0,21.6,0,32.4,0c4.1,0,10.8,0.9,13.9-0.5c7-8.9,13.9-17.8,20.9-26.6
	c1.9-2.5,4.4-7.8,7.4-8.9c0,31.4,0,62.9,0,94.3c-3.3-1.2-6.1-7.1-8.2-9.8c-7-8.7-13.9-17.4-20.9-26.2c-15.2,0-30.4,0-45.6,0
	c0,16.7,0,33.4,0,50.2c0,5.5-1.6,15.9,0.7,19.9c8.6,6.6,17.3,13.3,25.9,19.9c2.5,1.9,8,4.4,9.1,7.4c-37,0-73.9,0-110.9,0
	c0.1-0.2,0.2-0.5,0.2-0.7c11.3-8.9,22.6-17.8,33.8-26.6c0-40.6,0-81.1,0-121.7c0-11.6,0-23.2,0-34.8c0-4.3,1-11.5-0.5-14.9
	c-8-6.2-16-12.5-24-18.7c-3-2.3-7.6-4.5-9.6-7.7c0.1-0.1,0.2-0.2,0.2-0.2C433.2,180.5,497,180.5,560.9,180.5z"/>
<path class="st0" d="M601.9,180.5c69.2,0,138.4,0,207.6,0c1.8,27.2,3.5,54.4,5.3,81.6c-0.3-0.1-0.6-0.2-1-0.2
	c-14.2-19.4-28.3-38.7-42.5-58.1c-15.1,0-30.2,0-45.4,0c0,43.2,0,86.4,0,129.6c0,11,0,21.9,0,32.9c0,2.8-1,10,0.5,11.8
	c8.2,6.5,16.5,13,24.7,19.4c2.8,2.1,9.1,5,10.3,8.4c-36.2,0-72.5,0-108.7,0c0-1.3,0.1-1.9,0.5-2.6c10.6-8.2,21.1-16.3,31.7-24.5
	c0-58.3,0-116.6,0-175c-11.1,0-22.2,0-33.4,0c-2.8,0-10-1-11.8,0.5c-10.3,13.9-20.6,27.8-31,41.8c-3,4.2-7.9,13.5-12,16.1
	c-0.1,0-0.2,0-0.2,0C598.4,234.9,600.2,207.7,601.9,180.5z"/>
<path class="st0" d="M2443.9,247.7c0.2,0.3,0.5,0.6,0.7,1c1.1,10.4,2.2,20.8,3.4,31.2c0-0.2,0-0.3,0-0.5c8.8-11.1,11.6-18.3,26.4-24
	c27.5-10.7,57.2,4.1,65.5,23c5.7,13,5.3,30.8,5.3,49.4c-0.1,18.6-0.2,37.1-0.2,55.7c8.2,7.3,16.3,14.6,24.5,21.8
	c-0.1,0.2-0.2,0.3-0.2,0.5c-20.6,0-41.3,0-61.9,0c-4.2,0-20.2,1.1-22.6-0.5c0.6-0.7,1.3-1.4,1.9-2.2c6.8-6.6,13.6-13.3,20.4-19.9
	c0.1-19.2,0.2-38.4,0.2-57.6c0-13.9-0.2-28.1-5.8-36.5c-4-6-10.3-9.1-19-10.6c-17.3-2.9-30.1,10.3-33.6,21.6
	c-2.3,7.5-1.2,19-1.2,28.3c0,18.2,0,36.5,0,54.7c2.2,1,23.7,20.9,24.2,22.6c-28.2,0-56.3,0-84.5,0c0.7-2.2,3.1-3.3,4.6-4.8
	c5.8-5.8,11.7-11.5,17.5-17.3c0-21.8,0-43.7,0-65.5c0-3.7,0.9-21.2-0.5-22.8c-3.6-3.6-20.6-11.7-21.8-15.1
	C2406.2,269.4,2425,258.6,2443.9,247.7z"/>
<path class="st0" d="M1976.9,247.9c0.9,0.3,0.5,0,1,0.7c1.1,10.2,2.2,20.5,3.4,30.7c0.1,2.4,0.2,4.8,0.2,7.2
	c2.5-14.5,17.1-30.6,30.7-34.3c21.7-5.9,39.6,11.4,32.9,33.1c-4,12.8-20.6,22.2-34.1,11.8c-3.6-2.8-8.2-13.4-15.4-10.3
	c-5.7,2.4-8.4,10.2-10.6,16.3c-6.8,19.6-3.9,54.4-3.8,80.2c3.2,2.4,23.4,20.1,24.2,22.6c-28.2,0-56.3,0-84.5,0
	c0.7-2.3,3-3.3,4.6-4.8c5.8-5.8,11.7-11.5,17.5-17.3c0-20.9,0-41.8,0-62.6c0-6.2,1.6-21.3-0.5-25.9c-2.9-1.1-21.1-12.8-21.8-14.9
	C1939.4,269.5,1958.2,258.7,1976.9,247.9z"/>
<path class="st0" d="M1537.2,255.4c22,0,44,0,66,0c4.4,0,20.3-0.9,21.8,1.2c0.1,0.2,0.2,0.5,0.2,0.7c-6.7,7-13.4,13.9-20.2,20.9
	c12,28,24,56,36,84c0.1,0,0.2,0,0.2,0c12.3-27.1,24.6-54.2,37-81.4c-5.5-6.5-11-13-16.6-19.4c-1.5-1.9-4.1-3.3-4.8-6
	c23.7,0.1,47.4,0.2,71,0.2c0.1,0.3,0.2,0.6,0.2,1c-11,9.5-22.1,19-33.1,28.6c-6.3,13.5-12.6,27-19,40.6
	c-13.5,28.2-27,56.5-40.6,84.7c-8.2,18.5-16.3,39.8-28.3,55c-13.3,16.8-47.8,20.6-58.8-1.2c-2.2-4.4-3.6-12-1.9-18.2
	c3.5-12.8,21-22.9,34.8-12.5c4.5,3.4,8.5,15.4,17,13.2c6.1-1.6,10.9-16.3,13.7-22.1c1.4-2.8,7.6-13.2,7.2-15.6
	c-18.4-41.8-36.8-83.5-55.2-125.3c-6.8-7-13.6-14.1-20.4-21.1C1541.6,260.5,1538.2,258.3,1537.2,255.4z"/>
<path class="st0" d="M1885.4,348.5c-8.4,10.3-15.5,19.2-29,24.5c-6.4,2.5-16.5,5-25.2,3.6c-5.5-0.9-9.8-0.7-14.4-2.2
	c-20.8-6.5-32.7-24.1-34.6-49.7c35.1,0,70.2,0,105.4,0c0.2-39.6-10.7-56.6-38.9-67.7c-9.1-3.6-24.4-6.6-37.4-4.1
	c-7.1,1.3-13.6,2.7-19.4,5.3c-26.2,11.3-39.6,33.7-45.1,66c-1.3,7.4-0.3,17.3,1,23.5c6.1,29.5,20.4,47.9,46.6,57.1
	c13.5,4.8,35.1,5.5,48.7,0.2c18.8-7.3,32.9-19.6,40.3-38.4c1.9-4.8,1.7-10.2,3.1-15.8C1886.5,349.3,1886.7,348.9,1885.4,348.5z
	 M1814.6,267.8c6.3-1.1,12.9,1,16.8,3.4c10.4,6.3,15.7,20.5,15.6,37.2c-21.6,0-43.2,0-64.8,0
	C1782.4,285.6,1794.7,271.3,1814.6,267.8z"/>
<path class="st0" d="M2740.3,348c-0.1,0-0.2,0-0.2,0c-2.2,3-4.3,5.9-6.5,8.9c-5.2,6.5-13.4,12.2-21.6,15.6c-4.5,1.2-9,2.4-13.4,3.6
	c-7.9,1.6-18,0.6-24.7-1.2c-23.7-6.5-33.7-23-37.4-49.7c0-0.1,0-0.2,0-0.2c35.1-0.2,70.2-0.3,105.4-0.5c-0.1-3.9-0.2-7.8-0.2-11.8
	c0-41.2-29.1-60.8-71.3-60.2c-5,2-11.3,1.4-16.1,2.9c-13.9,4.4-26.2,12.3-34.3,22.6c-7.8,9.8-13.5,21.2-17,35.3
	c-8.7,34.4,6.9,67.2,25.7,81.4c13.5,10.2,39.8,19.3,63.4,12.2c15.5-4.6,27.8-12.5,36.5-24c3.3-4.3,15.9-25,12-34.3
	C2740.3,348.3,2740.3,348.2,2740.3,348z M2686.6,271.7c11.1,7,13,20.1,14.9,36.7c-21.6,0-43.2,0-64.8,0
	C2636.6,283.5,2661.1,255.6,2686.6,271.7z"/>
<path class="st0" d="M1498.8,383.8c0-15.9,0-31.8,0-47.8c0-14.1,1.5-30.6-1.2-43c-6.5-29.9-27.8-40.9-64.8-40.6
	c-2.5,0.2-5,0.5-7.4,0.7c-4.5,0.9-9,1.8-13.4,2.6c-19.3,5.8-55.7,27.4-35.3,53.8c2,2.6,5,4.5,8.4,5.8c32,12.1,42.3-35.2,15.1-39.8
	c0-0.2,0-0.3,0-0.5c8.2-3.4,18.6-8.7,32.2-6.2c18,3.2,37.6,23.2,24.2,43.2c-11,16.5-35.8,12.9-56.9,19.2
	c-19.3,5.7-30.2,16.3-33.6,38.2c-4.2,27,27.6,45.1,54.5,38.4c15.3-3.8,28.4-12.4,36.7-23.3c1.8-2.9,3.7-5.8,5.5-8.6
	c0-0.2,0-0.3,0-0.5c0.1,10.1,0.2,20.2,0.2,30.2c20.2,0.1,40.5,0.2,60.7,0.2c0.1-0.2,0.2-0.3,0.2-0.5
	C1515.6,398.2,1507.2,391,1498.8,383.8z M1460.9,356.6c-2.5,10.7-12.7,19.1-22.3,22.8c-9.4,3.7-23.1,2.1-28.1-4.3
	c-5.1-6.5-4.7-18.9,0.7-24.7c11.5-12.4,37.7-10.4,49.4-22.6c0.1,4.8,0.2,9.6,0.2,14.4C1460.9,347,1460.9,351.8,1460.9,356.6z"/>
</svg>
